<svg width="19" height="18" viewBox="0 0 19 18" fill="none" xmlns="http://www.w3.org/2000/svg">
<path d="M16.8541 7.53113H16.25V7.5H9.5V10.5H13.7386C13.1203 12.2464 11.4586 13.5 9.5 13.5C7.01487 13.5 5 11.4851 5 9C5 6.51487 7.01487 4.5 9.5 4.5C10.6471 4.5 11.6908 4.93275 12.4854 5.63962L14.6068 3.51825C13.2673 2.26987 11.4755 1.5 9.5 1.5C5.35812 1.5 2 4.85812 2 9C2 13.1419 5.35812 16.5 9.5 16.5C13.6419 16.5 17 13.1419 17 9C17 8.49713 16.9482 8.00625 16.8541 7.53113Z" fill="#FFC107"/>
<path d="M2.8645 5.50912L5.32863 7.31625C5.99538 5.6655 7.61013 4.5 9.49975 4.5C10.6469 4.5 11.6905 4.93275 12.4851 5.63962L14.6065 3.51825C13.267 2.26987 11.4753 1.5 9.49975 1.5C6.619 1.5 4.12075 3.12637 2.8645 5.50912Z" fill="#FF3D00"/>
<path d="M9.49987 16.5032C11.4371 16.5032 13.1974 15.7618 14.5282 14.5562L12.207 12.5919C11.454 13.1623 10.518 13.5032 9.49987 13.5032C7.54912 13.5032 5.89275 12.2593 5.26875 10.5234L2.823 12.4078C4.06425 14.8367 6.585 16.5032 9.49987 16.5032Z" fill="#4CAF50"/>
<path d="M16.854 7.53503H16.2499V7.50391H9.49988V10.5039H13.7385C13.4415 11.3428 12.9019 12.0662 12.2059 12.593L12.207 12.5923L14.5283 14.5565C14.364 14.7058 16.9999 12.7539 16.9999 9.00391C16.9999 8.50103 16.9481 8.01016 16.854 7.53503Z" fill="#1976D2"/>
</svg>
